<svg version="1.1" id="Layer_1" xmlns="http://www.w3.org/2000/svg" xmlns:xlink="http://www.w3.org/1999/xlink" x="0px" y="0px"
	 width="100%" viewBox="0 0 500 500" enable-background="new 0 0 500 500" xml:space="preserve">
<path fill="#0172C5" opacity="1.000000" stroke="none" 
	d="
M229.969116,492.745544 
	C214.408783,491.485077 198.831284,490.404327 183.292343,488.919952 
	C162.588348,486.942139 142.360825,482.442413 122.661377,475.859955 
	C106.970444,470.616913 91.632011,464.386475 78.653885,453.724701 
	C71.587601,447.919586 65.616402,441.198730 63.978172,430.802917 
	C63.943302,428.269958 63.974888,426.603577 63.975094,424.937225 
	C63.989029,312.623749 63.996342,200.310272 64.046104,87.996819 
	C64.046959,86.058945 64.557648,84.121307 64.908974,82.536667 
	C67.583023,87.111069 69.356010,92.297913 72.943871,95.354294 
	C80.607361,101.882561 88.670334,108.337479 97.532440,112.987549 
	C122.296616,125.981659 149.267502,132.451721 176.794571,135.828033 
	C199.069382,138.560120 221.565170,139.490494 243.958038,141.674942 
	C244.017349,173.186600 244.081558,204.243393 243.836914,235.500656 
	C238.250610,237.671646 232.629227,239.019745 227.751816,241.714386 
	C197.655548,258.342010 189.641739,306.202148 212.027039,334.009613 
	C220.346512,344.344238 231.461243,349.835876 243.995300,353.460480 
	C243.984787,385.064392 243.980804,416.199127 243.977127,447.333862 
	C243.975586,460.487030 243.881531,473.641296 244.031586,486.792725 
	C244.075241,490.619171 242.828979,492.267426 238.857071,492.097900 
	C235.909012,491.972076 232.932785,492.505676 229.969116,492.745544 
M162.440033,286.048584 
	C157.033783,283.106232 151.495270,280.378845 146.260422,277.157898 
	C141.522232,274.242584 139.841660,269.581909 140.867233,264.166870 
	C141.878357,258.828064 145.968582,256.224640 150.745667,255.557709 
	C155.454208,254.900360 160.485428,254.754303 165.104523,255.702286 
	C171.169052,256.946930 176.968689,259.482269 183.177216,261.561279 
	C183.177216,254.877762 183.306931,248.066055 183.053772,241.268616 
	C183.009857,240.089447 181.550278,238.260513 180.400864,237.931122 
	C165.026688,233.525192 149.496094,232.255463 134.277451,238.172195 
	C115.957901,245.294510 107.888649,265.345184 116.220093,282.090668 
	C120.570198,290.833984 128.005661,296.363892 136.403580,300.810730 
	C142.140808,303.848694 148.016312,306.667694 153.536896,310.061371 
	C159.693176,313.845856 161.979889,319.003754 160.583908,324.174225 
	C159.237350,329.161530 154.333939,332.494751 147.357819,333.024994 
	C137.191483,333.797729 127.879257,331.224640 119.371475,325.660248 
	C117.748779,324.598907 116.166672,323.475525 113.750191,321.822998 
	C113.750191,329.631409 113.909119,336.557190 113.676636,343.469849 
	C113.575172,346.486847 114.657494,348.013641 117.395676,349.004303 
	C134.156326,355.068054 151.020859,355.604980 167.751877,349.343018 
	C179.026123,345.123352 186.181168,336.953583 187.878891,324.725464 
	C189.686691,311.704559 185.590775,301.036835 174.565842,293.469177 
	C170.865540,290.929230 166.925232,288.738983 162.440033,286.048584 
z"/>
<path fill="#2787CE" opacity="1.000000" stroke="none" 
	d="
M230.437668,492.821411 
	C232.932785,492.505676 235.909012,491.972076 238.857071,492.097900 
	C242.828979,492.267426 244.075241,490.619171 244.031586,486.792725 
	C243.881531,473.641296 243.975586,460.487030 243.977127,447.333862 
	C243.980804,416.199127 243.984787,385.064392 244.417953,353.419006 
	C250.676041,352.471161 254.852036,354.980103 258.324097,359.623810 
	C261.502930,363.875336 265.750763,367.348053 268.781158,371.685425 
	C273.622375,378.614563 279.598358,381.504425 288.156250,380.527100 
	C294.939362,379.752411 301.881592,380.371124 308.753174,380.371124 
	C308.871124,379.959045 308.989075,379.546936 309.107056,379.134857 
	C298.599365,369.388672 288.091705,359.642487 277.164276,349.506958 
	C296.004395,341.950592 306.640228,328.314850 310.417664,309.671631 
	C312.014709,301.789581 312.362488,293.424805 311.812622,285.379608 
	C310.043976,259.500885 293.318665,239.928467 268.968048,235.652695 
	C260.921417,234.239777 252.432465,235.345871 244.145752,235.300201 
	C244.081558,204.243393 244.017349,173.186600 244.421417,141.584320 
	C256.185944,140.680893 267.501892,140.629791 278.774750,139.906998 
	C311.402374,137.814987 343.539856,132.891235 374.512299,121.949432 
	C388.994537,116.833199 402.926208,110.567879 414.751709,100.474998 
	C420.892883,95.233612 426.139709,89.278336 428.353912,81.384338 
	C428.808716,87.436363 428.970032,93.195480 429.131378,98.954605 
	C429.061493,111.134254 428.940277,123.313873 428.931458,135.493561 
	C428.904999,172.013168 428.922424,208.532791 428.922852,245.052414 
	C428.923370,288.903809 428.869507,332.755341 428.969055,376.606537 
	C428.989777,385.741455 429.942841,394.880554 429.806091,404.007843 
	C429.658844,413.837341 428.968262,423.676422 428.075287,433.471252 
	C427.389526,440.993073 422.251740,446.314148 417.013428,450.877472 
	C396.151794,469.051025 370.581329,477.174988 344.264832,482.747955 
	C326.554138,486.498505 308.503479,489.170410 290.467072,490.714508 
	C270.696075,492.407135 250.766617,492.248932 230.437668,492.821411 
M331.454468,347.116943 
	C331.575226,348.558197 331.695984,349.999451 331.815704,351.428467 
	C354.697937,351.428467 377.122620,351.428467 399.696472,351.428467 
	C399.696472,344.388977 399.696472,337.680481 399.696472,330.426636 
	C385.587982,330.426636 371.833099,330.426636 357.429871,330.426636 
	C357.429871,298.827850 357.429871,267.770813 357.429871,236.543564 
	C348.534332,236.543564 340.300751,236.543564 331.455627,236.543564 
	C331.455627,273.297058 331.455627,309.744446 331.454468,347.116943 
z"/>
<path fill="#FCFDFC" opacity="1.000000" stroke="none" 
	d="
M428.060425,81.091431 
	C426.139709,89.278336 420.892883,95.233612 414.751709,100.474998 
	C402.926208,110.567879 388.994537,116.833199 374.512299,121.949432 
	C343.539856,132.891235 311.402374,137.814987 278.774750,139.906998 
	C267.501892,140.629791 256.185944,140.680893 244.426315,141.129456 
	C221.565170,139.490494 199.069382,138.560120 176.794571,135.828033 
	C149.267502,132.451721 122.296616,125.981659 97.532440,112.987549 
	C88.670334,108.337479 80.607361,101.882561 72.943871,95.354294 
	C69.356010,92.297913 67.583023,87.111069 64.963120,82.208008 
	C64.358673,80.621857 63.778603,79.717484 63.198532,78.813118 
	C61.829063,65.677216 67.920303,56.593033 77.864258,48.524040 
	C97.623947,32.490097 120.920158,24.948332 144.960602,19.268599 
	C159.757172,15.772799 174.845291,13.334538 189.915985,11.236802 
	C200.161606,9.810683 210.596207,9.595471 220.960098,9.202713 
	C234.211288,8.700535 247.487152,8.100406 260.732300,8.407640 
	C272.821381,8.688059 284.928894,9.737286 296.946014,11.148240 
	C311.158539,12.816960 325.464081,14.428853 339.395416,17.553953 
	C353.929596,20.814285 368.260223,25.298151 382.318329,30.269356 
	C394.603821,34.613724 405.889374,41.055927 416.062347,49.565838 
	C423.148132,55.493206 427.390839,62.684448 429.628174,71.737656 
	C428.872437,75.201256 428.466431,78.146347 428.060425,81.091431 
M132.730743,98.175537 
	C141.649094,100.799850 150.441208,104.015823 159.506805,105.949989 
	C208.816162,116.470207 258.497772,117.092865 308.334045,110.463417 
	C325.977356,108.116432 343.432770,104.702888 360.784973,97.974609 
	C370.167297,94.382149 379.255615,90.244034 386.338806,82.827690 
	C393.579254,75.246727 393.938202,66.616585 386.350281,59.466270 
	C381.472839,54.870132 375.625519,50.978252 369.611145,47.976250 
	C353.381042,39.875153 335.797333,35.972115 318.022400,32.988205 
	C279.553925,26.530434 240.877197,25.643280 202.104782,29.329208 
	C178.201355,31.601606 154.411301,35.092793 132.020111,44.179619 
	C123.221001,47.750481 114.580162,52.643887 107.229134,58.612362 
	C98.218674,65.928177 98.755402,75.620689 107.129066,83.717781 
	C114.191826,90.547264 122.799286,94.836769 132.730743,98.175537 
z"/>
<path fill="#8CBEE1" opacity="1.000000" stroke="none" 
	d="
M63.097801,79.288406 
	C63.778603,79.717484 64.358673,80.621857 64.884583,81.854889 
	C64.557648,84.121307 64.046959,86.058945 64.046104,87.996819 
	C63.996342,200.310272 63.989029,312.623749 63.975094,424.937225 
	C63.974888,426.603577 63.943302,428.269958 63.961063,430.394348 
	C63.667576,428.843384 63.053150,426.834503 63.052189,424.825348 
	C63.000568,316.962372 63.000580,209.099365 62.995468,101.236366 
	C62.995129,94.078812 62.996490,86.921257 63.097801,79.288406 
z"/>
<path fill="#ADBECB" opacity="1.000000" stroke="none" 
	d="
M428.353912,81.384338 
	C428.466431,78.146347 428.872437,75.201256 429.562683,72.132980 
	C429.855682,80.848900 429.864471,89.688011 429.502319,98.740860 
	C428.970032,93.195480 428.808716,87.436363 428.353912,81.384338 
z"/>
<path fill="#FCFDFE" opacity="1.000000" stroke="none" 
	d="
M243.836914,235.500671 
	C252.432465,235.345871 260.921417,234.239777 268.968048,235.652695 
	C293.318665,239.928467 310.043976,259.500885 311.812622,285.379608 
	C312.362488,293.424805 312.014709,301.789581 310.417664,309.671631 
	C306.640228,328.314850 296.004395,341.950592 277.164276,349.506958 
	C288.091705,359.642487 298.599365,369.388672 309.107056,379.134857 
	C308.989075,379.546936 308.871124,379.959045 308.753174,380.371124 
	C301.881592,380.371124 294.939362,379.752411 288.156250,380.527100 
	C279.598358,381.504425 273.622375,378.614563 268.781158,371.685425 
	C265.750763,367.348053 261.502930,363.875336 258.324097,359.623810 
	C254.852036,354.980103 250.676041,352.471161 244.424622,352.949829 
	C231.461243,349.835876 220.346512,344.344238 212.027039,334.009613 
	C189.641739,306.202148 197.655548,258.342010 227.751816,241.714386 
	C232.629227,239.019745 238.250610,237.671646 243.836914,235.500671 
M243.258972,259.935669 
	C236.885635,263.202179 232.748123,268.537811 230.189407,274.991058 
	C225.697739,286.319275 225.537674,297.999237 228.912933,309.597931 
	C231.289871,317.765900 235.583359,324.731567 244.433868,328.786102 
	C258.463043,334.255798 272.682159,330.448212 279.230927,318.031860 
	C287.998871,301.407990 287.677917,284.181610 277.918518,268.002899 
	C271.028870,256.581482 255.843384,253.450821 243.258972,259.935669 
z"/>
<path fill="#FBFDFE" opacity="1.000000" stroke="none" 
	d="
M162.767334,286.218750 
	C166.925232,288.738983 170.865540,290.929230 174.565842,293.469177 
	C185.590775,301.036835 189.686691,311.704559 187.878891,324.725464 
	C186.181168,336.953583 179.026123,345.123352 167.751877,349.343018 
	C151.020859,355.604980 134.156326,355.068054 117.395676,349.004303 
	C114.657494,348.013641 113.575172,346.486847 113.676636,343.469849 
	C113.909119,336.557190 113.750191,329.631409 113.750191,321.822998 
	C116.166672,323.475525 117.748779,324.598907 119.371475,325.660248 
	C127.879257,331.224640 137.191483,333.797729 147.357819,333.024994 
	C154.333939,332.494751 159.237350,329.161530 160.583908,324.174225 
	C161.979889,319.003754 159.693176,313.845856 153.536896,310.061371 
	C148.016312,306.667694 142.140808,303.848694 136.403580,300.810730 
	C128.005661,296.363892 120.570198,290.833984 116.220093,282.090668 
	C107.888649,265.345184 115.957901,245.294510 134.277451,238.172195 
	C149.496094,232.255463 165.026688,233.525192 180.400864,237.931122 
	C181.550278,238.260513 183.009857,240.089447 183.053772,241.268616 
	C183.306931,248.066055 183.177216,254.877762 183.177216,261.561279 
	C176.968689,259.482269 171.169052,256.946930 165.104523,255.702286 
	C160.485428,254.754303 155.454208,254.900360 150.745667,255.557709 
	C145.968582,256.224640 141.878357,258.828064 140.867233,264.166870 
	C139.841660,269.581909 141.522232,274.242584 146.260422,277.157898 
	C151.495270,280.378845 157.033783,283.106232 162.767334,286.218750 
z"/>
<path fill="#FAFCFE" opacity="1.000000" stroke="none" 
	d="
M331.455048,346.654388 
	C331.455627,309.744446 331.455627,273.297058 331.455627,236.543564 
	C340.300751,236.543564 348.534332,236.543564 357.429871,236.543564 
	C357.429871,267.770813 357.429871,298.827850 357.429871,330.426636 
	C371.833099,330.426636 385.587982,330.426636 399.696472,330.426636 
	C399.696472,337.680481 399.696472,344.388977 399.696472,351.428467 
	C377.122620,351.428467 354.697937,351.428467 331.815704,351.428467 
	C331.695984,349.999451 331.575226,348.558197 331.455048,346.654388 
z"/>
<path fill="#B8D433" opacity="1.000000" stroke="none" 
	d="
M132.088684,97.825829 
	C122.799286,94.836769 114.191826,90.547264 107.129066,83.717781 
	C98.755402,75.620689 98.218674,65.928177 107.229134,58.612362 
	C114.580162,52.643887 123.221001,47.750481 132.020111,44.179619 
	C154.411301,35.092793 178.201355,31.601606 202.104782,29.329208 
	C240.877197,25.643280 279.553925,26.530434 318.022400,32.988205 
	C335.797333,35.972115 353.381042,39.875153 369.611145,47.976250 
	C375.625519,50.978252 381.472839,54.870132 386.350281,59.466270 
	C393.938202,66.616585 393.579254,75.246727 386.338806,82.827690 
	C379.255615,90.244034 370.167297,94.382149 360.175903,97.717941 
	C357.733826,96.694389 355.941315,95.806366 354.061829,95.178848 
	C327.019196,86.150070 298.981506,82.523895 270.721802,81.289162 
	C235.630798,79.755943 200.538574,80.671951 166.020889,88.168861 
	C154.552032,90.659798 143.390640,94.566422 132.088684,97.825829 
z"/>
<path fill="#80BB02" opacity="1.000000" stroke="none" 
	d="
M132.409714,98.000687 
	C143.390640,94.566422 154.552032,90.659798 166.020889,88.168861 
	C200.538574,80.671951 235.630798,79.755943 270.721802,81.289162 
	C298.981506,82.523895 327.019196,86.150070 354.061829,95.178848 
	C355.941315,95.806366 357.733826,96.694389 359.810608,97.722229 
	C343.432770,104.702888 325.977356,108.116432 308.334045,110.463417 
	C258.497772,117.092865 208.816162,116.470207 159.506805,105.949989 
	C150.441208,104.015823 141.649094,100.799850 132.409714,98.000687 
z"/>
<path fill="#2788CE" opacity="1.000000" stroke="none" 
	d="
M243.958725,259.840851 
	C255.843384,253.450821 271.028870,256.581482 277.918518,268.002899 
	C287.677917,284.181610 287.998871,301.407990 279.230927,318.031860 
	C272.682159,330.448212 258.463043,334.255798 244.196381,328.035400 
	C243.958847,304.803406 243.958786,282.322113 243.958725,259.840851 
z"/>
<path fill="#0474C6" opacity="1.000000" stroke="none" 
	d="
M243.608856,259.888245 
	C243.958786,282.322113 243.958847,304.803406 243.946594,327.769714 
	C235.583359,324.731567 231.289871,317.765900 228.912933,309.597931 
	C225.537674,297.999237 225.697739,286.319275 230.189407,274.991058 
	C232.748123,268.537811 236.885635,263.202179 243.608856,259.888245 
z"/>
</svg>